<?xml version="1.0" encoding="UTF-8" standalone="no"?>
<!DOCTYPE svg PUBLIC "-//W3C//DTD SVG 1.1//EN" "http://www.w3.org/Graphics/SVG/1.1/DTD/svg11.dtd">
<svg width="100%" height="100%" viewBox="0 0 1121 1126" version="1.1" xmlns="http://www.w3.org/2000/svg" xmlns:xlink="http://www.w3.org/1999/xlink" xml:space="preserve" style="fill-rule:evenodd;clip-rule:evenodd;stroke-linejoin:round;stroke-miterlimit:1.41421;">
    <g transform="matrix(1,0,0,1,-1323,-1319)">
        <g id="Icon-.28.White.29." transform="matrix(1.02365,0,0,1.22504,1323.66,-315.904)">
            <rect x="0" y="1335.2" width="1093.74" height="918.341" style="fill:none;"/>
            <g id="Icon" transform="matrix(4.07042,0,0,3.40126,-260.276,1269.98)">
                <path d="M167.038,173.33C160.763,167.307 160.636,146.197 166.785,138.843L163.048,140.337C160.761,136.646 157.616,134.365 154.143,134.365C147.147,134.365 141.476,143.617 141.476,155.031C141.476,166.445 147.212,176.221 154.208,176.221C157.193,176.221 159.923,174.435 162.075,171.508L167.038,173.33Z" style="fill:white;"/>
                <path d="M149.225,134.215L125.705,147.534C125.021,148.197 124.502,149.422 124.155,150.885L140.096,142.518C138.638,144.102 138.384,146.701 138.384,146.701L123.882,152.307C123.619,154.056 123.57,155.976 123.754,157.642L138.258,163.248C138.258,163.248 138.511,165.848 139.969,167.432L123.99,159.044C124.215,160.07 124.548,160.922 125.006,161.431L148.401,176.183C137.496,169.336 135.341,142.013 149.225,134.215" style="fill:white;"/>
                <path d="M176.399,80.408L147.905,91.77L147.905,102.959L176.399,99.112L176.399,80.408Z" style="fill:white;"/>
                <path d="M176.399,208.543L146.199,204.477L146.01,216.941L176.17,228.232L176.399,208.543Z" style="fill:white;"/>
                <path d="M253.886,51.343L227.007,61.365L227.007,93.291L253.782,89.866L253.886,51.343Z" style="fill:white;"/>
                <path d="M227.007,215.15L227.007,247.243L253.206,257.012L253.103,218.488L227.007,215.15Z" style="fill:white;"/>
                <path d="M221.834,63.294L200.756,71.154L200.756,96.649L221.834,93.953L221.834,63.294Z" style="fill:white;"/>
                <path d="M255.897,154.754L236.173,153.954L236.189,151.224L210.77,128.158L199.676,128.511L198.915,134.123L224.947,149.061L212.171,147.283C212.154,147.251 212.141,147.219 212.123,147.187C209.447,141.772 203.391,138.35 198.556,136.379C196.79,133.323 194.608,130.838 192.145,129.108C191.894,128.918 191.623,128.727 191.337,128.537L190.193,110.425L186.276,109.472L185.959,101.32L183.735,101.003L183.735,98.826L196.716,97.166L196.716,72.661L183.735,77.502L183.735,73.055L182.359,72.844L182.355,72.981L179.731,74.108L179.685,102.203L178.702,102.438L178.712,111.042L176.467,112.451L176.589,127.634C176.601,127.625 176.613,127.618 176.624,127.609L176.54,128.704C169.63,133.137 164.786,143.495 164.786,155.567C164.786,155.945 164.807,156.316 164.815,156.691C164.775,158.457 164.95,160.382 165.321,162.385C166.385,169.105 168.986,174.91 172.531,178.922C172.56,178.959 172.586,179 172.615,179.038C172.615,179.035 172.616,179.025 172.616,179.022C174.266,180.869 176.115,182.334 178.11,183.313L177.646,197.587L178.976,197.75L179.029,204.007L179.875,204.029L179.902,232.66L182.04,233.943L183.301,233.287L183.275,230.935L196.716,235.947L196.716,211.275L183.029,209.525L182.972,204.43L183.108,204.448L183.108,204.242L185.7,202.514L185.7,197.8L187.849,195.815L188.177,184.057C192.618,182.59 196.483,178.807 199.198,173.584C203.627,171.018 209.427,166.955 211.644,162.274L223.923,161.316L197.776,177.227L197.248,183.036L206.793,183.897L236.136,160.563L236.158,156.763L255.849,156.857L256.613,155.758L255.897,154.754Z" style="fill:white;"/>
                <path d="M200.756,237.453L221.834,245.313L221.834,214.488L200.756,211.793L200.756,237.453Z" style="fill:white;"/>
            </g>
        </g>
    </g>
</svg>
